<?xml version="1.0" encoding="utf-8"?>
<!DOCTYPE svg PUBLIC "-//W3C//DTD SVG 20010904//EN" "http://www.w3.org/TR/2001/REC-SVG-20010904/DTD/svg10.dtd">
<svg version="1.0" xmlns="http://www.w3.org/2000/svg" width="1026pt" height="1026pt" viewBox="0 0 1026 1026" style="" preserveAspectRatio="xMidYMid meet">
<g fill="#1086CEFF">
<path d="M 476.500 23.708 C 439.453 26.284 400.355 33.621 366.500 44.351 C 354.651 48.107 330.009 57.059 323.500 59.974 C 321.300 60.959 316.125 63.216 312.000 64.989 C 283.488 77.245 245.917 98.980 221.500 117.345 C 168.804 156.978 122.745 208.707 90.029 265.000 C 55.045 325.195 33.651 393.604 26.467 468.242 C 24.971 483.786 24.257 531.777 25.410 539.244 C 25.687 541.035 26.184 546.542 26.515 551.481 C 28.310 578.266 36.838 621.283 46.602 652.807 C 76.040 747.848 135.131 833.355 213.000 893.592 C 227.242 904.609 254.135 923.101 264.803 929.212 C 292.167 944.887 319.167 958.079 338.500 965.221 C 385.151 982.453 416.591 989.931 466.500 995.663 C 488.281 998.165 542.895 998.157 563.000 995.650 C 580.344 993.488 605.183 989.474 613.500 987.491 C 616.800 986.703 622.650 985.364 626.500 984.514 C 699.217 968.465 779.560 926.503 840.526 872.732 C 913.028 808.786 964.278 723.393 988.471 626.224 C 993.470 606.146 995.189 597.127 999.662 567.500 C 1003.151 544.391 1003.686 487.775 1000.669 461.000 C 994.542 406.641 982.581 361.450 961.496 313.000 C 923.775 226.325 862.388 153.735 782.887 101.795 C 763.713 89.269 735.520 74.120 712.500 63.974 C 662.058 41.744 615.056 29.585 560.000 24.525 C 544.932 23.140 492.106 22.623 476.500 23.708 M 547.000 76.011 C 672.395 85.360 786.384 146.704 861.943 245.500 C 876.167 264.098 897.445 299.088 907.248 320.000 C 939.872 389.593 953.275 455.859 949.822 530.500 C 947.313 584.717 932.899 644.052 911.318 689.000 C 908.809 694.225 906.141 699.935 905.390 701.689 C 901.639 710.446 884.200 740.013 874.242 754.500 C 832.342 815.454 776.275 864.297 709.000 898.452 C 651.261 927.766 579.445 944.995 515.000 944.995 C 438.537 944.995 356.164 922.350 290.890 883.386 C 279.062 876.325 253.154 859.183 251.000 856.992 C 250.725 856.712 244.875 852.022 238.000 846.569 C 223.200 834.830 193.457 805.375 179.365 788.500 C 128.148 727.171 96.073 657.608 82.997 579.500 C 78.217 550.946 77.496 541.086 77.551 505.000 C 77.596 475.991 77.908 469.221 79.878 454.500 C 90.486 375.251 117.284 310.307 166.556 244.441 C 198.345 201.946 245.679 160.544 293.311 133.570 C 351.633 100.541 413.073 81.609 479.896 76.075 C 494.128 74.897 531.570 74.861 547.000 76.011 "/></g>
<g fill="#1086CEFF">
<path d="M 340.500 160.056 C 318.559 161.355 295.616 168.317 275.627 179.742 C 251.601 193.474 228.012 217.840 213.738 243.673 C 196.714 274.482 191.356 313.489 198.997 350.986 C 202.327 367.325 207.616 381.646 219.553 406.647 C 235.741 440.549 240.708 455.456 241.662 473.000 C 242.288 484.503 240.585 497.246 236.942 508.314 C 233.201 519.682 223.271 538.329 211.274 556.515 C 204.738 566.423 197.103 578.798 194.306 584.015 C 172.878 623.991 168.882 666.705 182.598 709.178 C 187.090 723.089 198.870 746.439 207.480 758.500 C 220.457 776.678 249.397 804.270 252.369 801.298 C 253.967 799.699 252.513 796.710 246.341 788.913 C 231.853 770.607 220.220 749.890 214.104 731.500 C 208.089 713.416 206.617 703.681 206.619 682.000 C 206.621 661.838 208.311 650.671 213.619 635.766 C 216.774 626.905 223.184 614.680 223.991 615.985 C 224.314 616.508 224.232 620.663 223.807 625.218 C 223.383 629.773 223.069 639.350 223.109 646.500 C 223.594 733.544 266.034 808.209 340.500 853.028 C 386.830 880.912 441.769 895.852 509.500 898.985 C 520.500 899.493 531.750 899.723 534.500 899.495 C 537.250 899.267 545.350 898.826 552.500 898.516 C 599.647 896.468 655.115 883.534 688.292 866.853 C 697.208 862.370 700.776 859.598 699.024 858.515 C 698.404 858.132 693.083 858.390 687.199 859.089 C 670.534 861.068 637.609 860.819 625.500 858.623 C 611.156 856.021 597.378 852.596 583.019 848.061 C 564.492 842.210 551.965 839.940 538.196 839.940 C 526.445 839.940 524.372 840.271 492.500 847.251 C 478.930 850.223 444.222 850.452 431.000 847.657 C 415.373 844.353 397.482 837.132 390.726 831.401 C 387.716 828.847 387.667 828.710 390.000 829.352 C 412.840 835.637 425.536 837.408 448.000 837.444 C 473.900 837.486 478.331 836.736 524.500 824.496 C 532.246 822.442 549.855 820.045 557.372 820.020 C 567.822 819.985 583.443 822.938 605.203 829.062 C 616.916 832.359 631.450 835.989 637.500 837.130 C 651.517 839.773 682.993 840.807 696.329 839.063 C 724.536 835.373 751.725 824.632 773.525 808.566 C 786.813 798.772 806.745 778.604 805.788 775.919 C 805.629 775.475 799.875 777.958 793.000 781.436 C 756.167 800.068 718.909 806.747 681.682 801.391 C 669.141 799.587 642.342 793.116 622.000 786.980 C 595.150 778.881 578.911 776.000 560.110 776.000 C 543.499 776.000 529.907 778.334 505.272 785.417 C 465.724 796.789 453.594 799.022 431.025 799.088 C 409.504 799.151 394.726 796.662 374.000 789.485 C 353.672 782.446 334.406 770.902 319.601 756.891 C 297.827 736.284 283.736 713.572 273.454 682.510 C 264.999 656.968 261.436 631.627 262.343 603.500 C 262.662 593.600 263.582 582.350 264.386 578.500 C 266.135 570.134 268.904 564.060 270.029 566.121 C 270.444 566.879 272.455 575.150 274.498 584.500 C 282.668 621.885 295.293 647.167 316.500 668.613 C 339.225 691.594 367.231 704.381 399.500 706.511 C 415.694 707.579 430.625 705.131 449.000 698.393 C 461.048 693.975 462.711 692.803 461.233 689.767 C 460.627 688.520 454.678 681.680 448.015 674.566 C 423.039 647.901 414.523 633.470 412.002 613.540 C 409.994 597.654 414.639 576.412 423.642 560.313 C 426.257 555.637 426.825 553.879 425.835 553.526 C 425.101 553.264 420.450 551.651 415.500 549.941 C 383.410 538.859 355.082 515.199 341.500 488.136 C 338.270 481.699 336.894 475.000 338.803 475.000 C 339.244 475.000 342.800 478.947 346.705 483.772 C 367.621 509.611 392.709 528.380 422.000 540.101 C 442.073 548.133 460.641 551.927 480.000 551.952 C 506.963 551.986 518.627 544.327 523.492 523.391 C 524.718 518.117 524.932 514.077 524.406 506.178 L 523.717 495.856 528.370 491.132 C 534.391 485.019 535.502 481.268 533.331 474.380 L 531.685 469.161 534.843 466.003 C 536.580 464.266 538.284 461.715 538.631 460.334 C 539.762 455.828 538.233 446.652 535.101 439.153 C 532.766 433.559 532.274 431.357 533.039 429.926 C 533.722 428.650 538.292 426.707 547.273 423.874 C 568.247 417.258 572.000 414.612 572.000 406.433 C 572.000 401.654 570.435 397.152 556.726 362.500 C 544.710 332.128 544.990 333.195 546.624 323.991 C 547.355 319.871 548.021 311.744 548.103 305.931 C 548.312 291.252 546.628 287.470 537.957 283.136 C 532.776 280.547 530.498 280.000 524.906 280.000 C 509.639 280.000 488.534 286.853 473.926 296.554 C 466.985 301.163 456.000 311.136 456.000 312.828 C 456.000 313.379 458.263 315.491 461.030 317.522 C 468.248 322.820 469.474 325.638 469.294 336.500 C 468.985 355.106 466.134 369.244 462.401 370.677 C 458.698 372.097 458.000 368.621 458.000 348.759 C 458.000 334.566 457.654 329.232 456.602 327.198 C 453.091 320.409 447.412 318.923 441.680 323.295 C 435.567 327.958 433.822 328.235 418.005 327.054 C 321.807 319.874 270.291 311.808 249.547 300.678 C 246.289 298.930 243.424 296.875 243.182 296.110 C 242.641 294.409 247.323 294.826 263.500 297.921 C 279.287 300.941 328.450 307.757 357.500 310.953 C 373.234 312.684 385.236 314.080 388.506 314.559 C 391.862 315.050 391.454 315.675 397.026 301.512 C 408.444 272.489 429.832 248.870 453.988 238.607 C 460.917 235.663 469.000 233.747 469.000 235.048 C 469.000 235.482 467.323 236.874 465.273 238.141 C 459.235 241.872 442.913 255.324 437.380 261.129 C 429.501 269.394 421.663 280.328 417.164 289.331 C 413.050 297.564 407.286 313.619 408.139 314.472 C 408.392 314.725 415.030 315.456 422.891 316.096 L 437.182 317.259 448.112 305.695 C 466.721 286.004 484.485 275.174 505.000 271.012 C 508.575 270.287 511.624 269.601 511.776 269.488 C 512.486 268.957 504.818 252.493 500.232 244.702 C 482.678 214.876 458.298 192.579 426.773 177.518 C 406.479 167.823 384.361 161.676 365.445 160.473 C 360.525 160.160 355.375 159.792 354.000 159.654 C 352.625 159.517 346.550 159.698 340.500 160.056 M 345.129 355.475 C 412.758 361.794 424.222 363.240 428.816 366.034 C 431.244 367.511 432.038 369.055 433.506 375.156 C 441.548 408.563 460.606 432.657 484.429 439.534 C 491.239 441.500 507.126 441.186 515.205 438.926 C 519.458 437.736 520.104 437.784 521.919 439.427 C 524.694 441.938 527.376 449.364 526.611 452.414 C 525.912 455.197 520.530 459.237 511.211 463.972 C 501.898 468.705 501.951 469.633 511.703 472.499 C 519.935 474.919 521.866 479.422 517.959 487.081 C 513.698 495.433 510.548 496.468 498.644 493.433 C 485.850 490.171 469.637 480.259 459.711 469.629 C 440.107 448.636 428.229 420.206 423.727 383.500 L 422.500 373.500 410.723 372.153 C 404.246 371.413 398.247 371.075 397.393 371.403 C 395.724 372.043 395.839 375.564 398.135 394.000 C 402.772 431.237 416.722 462.115 439.744 486.101 C 445.139 491.722 448.567 496.000 447.676 496.000 C 445.063 496.000 431.422 488.499 426.531 484.372 C 420.803 479.541 407.900 462.739 404.110 455.178 C 392.968 432.950 386.010 403.799 386.003 379.311 L 386.000 370.123 381.750 369.603 C 379.413 369.317 374.575 368.818 371.000 368.495 C 355.399 367.084 331.626 361.536 321.250 356.885 C 310.756 352.181 310.223 352.213 345.129 355.475 M 531.701 298.960 C 539.110 303.477 539.466 309.645 533.375 327.979 C 527.060 346.988 526.056 351.201 523.973 367.438 C 520.351 395.665 516.010 404.642 507.988 400.494 C 499.090 395.893 492.867 377.439 491.400 351.304 C 489.651 320.154 497.395 303.612 516.081 298.588 C 523.586 296.571 527.954 296.675 531.701 298.960 M 548.042 365.000 C 553.294 377.487 559.051 396.137 559.616 402.499 L 560.150 408.500 557.731 405.875 C 552.937 400.675 541.331 363.276 542.784 357.716 C 543.469 355.099 544.450 356.458 548.042 365.000 "/></g>
<g fill="#1086CEFF">
<path d="M 786.992 554.050 C 779.968 554.860 774.952 556.479 767.748 560.261 C 761.777 563.396 754.000 570.853 754.000 573.442 C 754.000 575.716 757.314 577.000 763.184 577.001 C 773.547 577.002 786.282 585.792 791.912 596.827 C 796.971 606.744 798.444 622.017 795.453 633.540 C 789.377 656.947 768.972 675.810 741.214 683.679 C 731.722 686.371 712.320 687.894 708.123 686.277 C 706.004 685.461 706.658 685.017 714.123 682.197 C 726.213 677.630 734.398 672.428 741.435 664.838 C 751.759 653.702 757.000 640.626 757.000 626.000 C 757.000 606.379 747.413 590.762 730.124 582.217 C 723.432 578.909 721.782 578.522 712.865 578.164 C 702.292 577.739 697.186 578.838 687.669 583.588 C 676.836 588.994 669.614 597.543 672.044 602.083 C 672.880 603.644 673.731 604.014 675.336 603.513 C 683.262 601.039 689.007 600.080 692.717 600.612 C 704.962 602.369 713.342 615.371 710.866 628.769 C 708.135 643.542 697.361 654.026 680.840 657.987 C 670.108 660.559 665.407 660.511 641.898 657.588 C 631.229 656.261 617.775 654.875 612.000 654.507 C 581.239 652.547 546.440 661.855 512.394 681.150 C 468.579 705.982 448.935 713.792 422.000 717.085 C 407.803 718.821 385.905 717.673 373.556 714.545 C 334.662 704.694 306.858 683.986 283.540 647.500 L 277.788 638.500 278.456 645.000 C 279.951 659.533 287.154 682.366 295.496 699.014 C 304.388 716.756 314.082 729.973 328.631 744.189 C 338.492 753.825 342.287 756.814 353.332 763.649 C 381.742 781.230 414.063 788.339 448.500 784.583 C 465.710 782.705 477.237 779.924 500.500 772.038 C 536.289 759.905 547.301 757.571 568.500 757.624 C 588.637 757.675 595.692 759.050 631.095 769.827 C 668.700 781.274 689.092 785.007 713.936 784.992 C 736.209 784.978 751.886 782.610 771.435 776.306 C 813.309 762.803 854.961 726.263 875.515 685.000 C 881.237 673.512 886.711 658.390 887.664 651.435 C 888.634 644.355 886.320 645.843 881.099 655.653 C 876.288 664.694 867.269 677.967 861.036 685.178 C 829.606 721.543 777.373 742.430 726.460 738.993 C 703.917 737.471 692.886 734.760 657.000 721.921 C 617.479 707.781 606.352 705.664 582.750 707.796 C 563.950 709.494 555.041 712.107 525.411 724.616 C 509.967 731.136 504.000 732.996 504.000 731.290 C 504.000 730.141 518.621 719.127 528.717 712.671 C 544.939 702.297 561.911 695.421 578.385 692.548 C 600.276 688.731 619.109 692.212 655.000 706.709 C 703.854 726.442 733.758 729.979 771.271 720.464 C 801.026 712.916 829.242 693.226 844.604 669.289 C 852.294 657.306 856.146 646.099 858.091 630.052 C 859.100 621.728 859.032 618.818 857.639 610.569 C 855.649 598.793 853.335 593.027 846.268 582.237 C 833.535 562.797 809.648 551.438 786.992 554.050 "/></g>
<g fill="#1086CEFF">
<path d="M 849.000 319.889 C 841.233 321.536 833.006 326.226 827.553 332.116 C 819.682 340.618 815.620 352.780 819.560 356.050 C 822.009 358.082 825.122 356.207 831.108 349.092 C 837.341 341.684 842.202 338.814 849.548 338.204 C 856.137 337.658 860.773 339.171 864.913 343.220 C 869.764 347.962 872.000 353.075 872.000 359.423 C 872.000 372.600 862.688 385.351 847.258 393.303 C 827.498 403.486 814.137 405.183 739.500 406.993 C 716.400 407.553 692.100 408.650 685.500 409.430 C 646.201 414.078 618.264 422.594 592.984 437.632 C 582.890 443.636 579.534 447.009 580.364 450.315 C 581.430 454.563 584.489 454.266 599.089 448.500 C 643.787 430.846 659.446 428.499 739.000 427.524 C 800.406 426.771 813.647 425.787 833.748 420.487 C 860.196 413.513 879.467 399.626 888.348 381.141 C 892.481 372.539 892.500 372.448 892.482 361.000 C 892.467 351.257 892.101 348.583 890.083 343.500 C 886.882 335.438 876.581 325.110 868.861 322.221 C 862.528 319.852 853.936 318.843 849.000 319.889 "/></g>
<g fill="#1086CEFF">
<path d="M 677.500 448.749 C 657.991 449.441 635.487 454.154 623.192 460.121 C 617.565 462.852 616.918 463.469 617.192 465.841 C 617.451 468.077 618.057 468.553 620.999 468.832 C 622.923 469.014 629.223 468.346 634.999 467.346 C 648.229 465.055 683.897 464.875 727.500 466.878 C 745.405 467.701 764.020 467.986 773.671 467.585 C 797.452 466.598 808.267 468.984 815.055 476.716 C 820.295 482.683 821.291 487.976 818.452 494.768 C 816.482 499.483 813.481 502.692 808.790 505.097 C 801.129 509.026 792.748 506.907 785.336 499.168 C 782.267 495.964 779.702 494.066 779.016 494.490 C 772.703 498.392 780.323 513.076 791.498 518.543 C 796.340 520.912 797.864 521.167 805.222 520.844 C 815.291 520.401 821.294 517.790 828.276 510.814 C 835.627 503.471 837.429 498.601 837.459 486.000 C 837.481 476.823 837.173 474.870 835.016 470.500 C 829.945 460.227 820.767 453.685 807.000 450.531 C 800.425 449.024 792.411 448.793 742.000 448.656 C 710.375 448.570 681.350 448.612 677.500 448.749 "/></g>
<g fill="#1086CEFF">
<path d="M 763.827 309.090 C 753.495 310.237 744.057 318.080 739.925 328.955 C 737.622 335.016 737.512 337.350 739.452 338.960 C 741.821 340.926 744.711 339.223 749.445 333.071 C 754.195 326.899 758.830 324.000 763.951 324.000 C 773.466 324.000 780.528 334.412 777.516 344.000 C 775.806 349.444 769.367 355.512 761.272 359.311 C 751.003 364.130 740.929 366.239 707.838 370.496 C 674.576 374.775 666.372 376.271 647.000 381.584 C 625.015 387.613 596.588 402.532 594.060 409.368 C 593.081 412.015 593.796 414.708 595.669 415.426 C 596.478 415.737 602.847 413.574 609.820 410.620 C 637.497 398.896 653.910 395.290 701.500 390.475 C 735.254 387.060 748.938 384.660 762.000 379.865 C 776.586 374.510 788.171 365.384 793.580 354.989 C 796.155 350.040 796.439 348.517 796.468 339.500 C 796.495 330.951 796.167 328.877 794.207 325.205 C 787.465 312.579 777.936 307.524 763.827 309.090 "/></g>
</svg>
